<svg id="Layer_1" data-name="Layer 1" xmlns="http://www.w3.org/2000/svg" viewBox="0 0 793.81 253.85"><defs><style>.cls-1{fill:#282828;}</style></defs><title>Nobul-logo-2018</title><polygon class="cls-1" points="241.38 54.73 226.41 54.73 215.21 54.73 215.21 80.77 241.38 115.01 241.38 80.9 241.38 54.73"/><polygon class="cls-1" points="71.56 171.98 71.56 198.15 81.94 198.15 97.73 198.15 97.73 54.73 71.56 54.73 71.56 171.98"/><path class="cls-1" d="M97.73,54.54v19.3A124.23,124.23,0,0,1,222,198.15h19.29A143.53,143.53,0,0,0,97.73,54.54Z"/><rect class="cls-1" x="71.56" y="54.54" width="27.69" height="19.43"/><path class="cls-1" d="M305.74,123.42h16.53v6.86h.27C327,124.09,335,121,342.83,121a29.76,29.76,0,0,1,21.24,9.28,13.8,13.8,0,0,1,1.88,2.15c5.78,8.06,5.92,17.34,5.92,26.88v38.58H354V162.8c0-5.78,0-13.17-3.09-18.14a14.36,14.36,0,0,0-11.83-6.18c-4.84,0-10.08,2.55-12.5,6.58-3.23,5.11-3,13.17-3,19.09v33.74H305.74Z"/><path class="cls-1" d="M470.12,160.79a39.59,39.59,0,0,1-79.17,0c0-22.31,17.88-39.79,40.19-39.79C453.05,121,470.12,139.15,470.12,160.79ZM415,145.33a21.32,21.32,0,0,0-6.18,15.46c0,12,9.28,22,21.51,22,12.63,0,21.91-9.54,21.91-22a22,22,0,0,0-21.91-22.31A22.23,22.23,0,0,0,415,145.33Z"/><path class="cls-1" d="M488.94,98.55h17.88v32.67h.27c5-7.26,14.52-10.22,23-10.22,21.78,0,37.37,18.68,37.37,39.65.13,9-3.63,20.17-9.54,27.16-6.59,8.06-16.94,12.5-27.29,12.5s-19.35-3.77-25-12.5h-.27v10.08h-16.4Zm16.81,61.16c0,13,9,23.12,22.44,23.12,12.64,0,21.37-9.54,21.37-22s-8.6-22.31-21.37-22.31C516.23,138.48,505.75,147.35,505.75,159.71Z"/><path class="cls-1" d="M652.66,123.42v74.47h-16.4V190H636c-3.76,7.25-10.75,10.35-19,10.35A30.82,30.82,0,0,1,593.52,190c-6.72-7.13-7.13-14.92-7.13-24.47V123.42h17.88V160c0,4.57.13,10.89,2.28,15.19a14,14,0,0,0,12.77,7.66c13.58,0,15.46-12.23,15.46-22.85V123.42Z"/><path class="cls-1" d="M677.12,98.55H695v99.34H677.12Z"/></svg>